<svg width="19" height="16" viewBox="0 0 19 16" fill="none" xmlns="http://www.w3.org/2000/svg">
<path fill-rule="evenodd" clip-rule="evenodd" d="M0.0385742 0.999756C0.0385742 0.447471 0.48629 -0.000244141 1.03857 -0.000244141H17.0641C17.6164 -0.000244141 18.0641 0.447471 18.0641 0.999756C18.0641 1.55204 17.6164 1.99976 17.0641 1.99976H1.03857C0.486289 1.99976 0.0385742 1.55204 0.0385742 0.999756ZM0.0387694 7.99994C0.0387694 7.44765 0.486485 6.99994 1.03877 6.99994H9.05297C9.60526 6.99994 10.053 7.44765 10.053 7.99994C10.053 8.55222 9.60526 8.99994 9.05297 8.99994H1.03877C0.486486 8.99994 0.0387694 8.55222 0.0387694 7.99994ZM1.03877 14C0.486485 14 0.0387694 14.4477 0.0387694 15C0.0387694 15.5523 0.486484 16 1.03877 16H13.0587C13.6109 16 14.0587 15.5523 14.0587 15C14.0587 14.4477 13.6109 14 13.0587 14H1.03877Z" fill="white"/>
</svg>
