<svg width="21" height="20" viewBox="0 0 21 20" fill="none" xmlns="http://www.w3.org/2000/svg">
<path d="M8.57937 13.4583L8.98873 13.0494L7.26943 11.3322L6.86007 11.7411L6.65539 11.5367C6.3279 11.1687 6.00042 10.9643 5.67293 11.0052C5.42732 11.0052 5.22264 11.1687 5.0589 11.414C4.81328 11.8229 4.93609 12.2726 4.97703 12.5588C4.97703 12.6406 5.01796 12.6815 5.01796 12.7632C5.01796 12.8859 5.01796 13.0494 4.73141 13.0903C4.32205 13.213 3.78989 13.3356 3.25772 13.6218C2.52088 14.0307 2.02965 14.3987 1.7431 14.7666C0.228478 16.7291 0.31035 18.4055 0.31035 18.4872C0.31035 18.6099 0.351285 18.6917 0.433157 18.7325L1.53842 19.8773C1.62029 19.9591 1.70217 20 1.78404 20C1.78404 20 1.82497 20 1.90684 20C2.3162 20 3.78989 19.9182 5.50919 18.569C5.87761 18.2828 6.24603 17.7922 6.65539 17.0562C6.94194 16.5656 7.10568 16.0341 7.18756 15.5844C7.26943 15.2982 7.39223 15.2982 7.51504 15.2982C7.55598 15.2982 7.63785 15.339 7.71972 15.339C7.88346 15.3799 8.04721 15.4208 8.25188 15.4208C8.45656 15.4208 8.66124 15.3799 8.86592 15.2573C9.11154 15.0937 9.27528 14.8893 9.31621 14.644C9.35715 14.3169 9.19341 13.9898 8.82499 13.7036L8.57937 13.4583Z" fill="white"/>
<path d="M17.2176 4.87841L18.354 4.32603C18.3961 4.28354 18.4803 4.24105 18.5223 4.19856L20.248 1.86157C20.3742 1.69161 20.3742 1.43667 20.2059 1.3092L19.0274 0.119458C18.9011 -0.00801422 18.6486 -0.0505049 18.4803 0.076967L16.1654 1.81908C16.1233 1.86157 16.0812 1.90406 16.0391 1.98905L15.492 3.13629L11.3252 7.21539L13.0929 9L17.2176 4.87841Z" fill="white"/>
<path d="M18.1876 13.0448C17.1971 12.0036 15.7708 11.6288 14.4237 12.0036L7.9657 5.17331C8.04493 4.79848 8.08455 4.46529 8.08455 4.09046C8.08455 3.04926 7.68836 2.00806 6.93558 1.21675C5.90547 0.0922529 4.3603 -0.282579 2.93399 0.217197C2.85475 0.258845 2.73589 0.383789 2.69627 0.550381C2.69627 0.675325 2.73589 0.800269 2.81513 0.925213L4.7565 2.96597C5.19231 3.42409 5.19231 4.21541 4.7565 4.67353C4.32068 5.13166 3.5679 5.13166 3.13209 4.67353L1.19072 2.63278C1.07186 2.54949 0.953002 2.50784 0.794523 2.54949C0.675664 2.54949 0.556805 2.67443 0.517185 2.79937C0.0417481 4.25705 0.398326 5.88133 1.42844 6.96417C2.14159 7.75549 3.17171 8.17197 4.20182 8.17197C4.51878 8.17197 4.87536 8.13032 5.19231 8.04702L11.69 14.8773C11.3334 16.2933 11.7296 17.7927 12.6804 18.8339C13.4332 19.6252 14.3841 20 15.4142 20C15.85 20 16.2462 19.9167 16.682 19.7918C16.8009 19.7501 16.9198 19.6252 16.9594 19.5002C16.999 19.3753 16.9594 19.2087 16.8405 19.1254L14.8991 17.0846C14.7011 16.8764 14.5426 16.5432 14.5426 16.21C14.5426 15.8768 14.6614 15.5853 14.8991 15.3354C15.1369 15.0855 15.4142 14.9606 15.7312 14.9606C16.0481 14.9606 16.3255 15.0855 16.5632 15.3354L18.5045 17.3762C18.6234 17.4595 18.7423 17.5011 18.8611 17.5011C18.98 17.4595 19.0988 17.3762 19.1385 17.2512C19.2573 16.8348 19.3366 16.3766 19.3366 15.9185C19.3366 14.8356 18.9404 13.7944 18.1876 13.0448Z" fill="white"/>
</svg>
